<svg xmlns="http://www.w3.org/2000/svg" viewBox="0 0 64 64" width="64" height="64">
  <!-- Left panel -->
  <path d="M20 16c-2 12-2 24 0 32s4 8 4 8h4s-2-4-2-8 0-20 2-32z"
        fill="#C62828"/>
  
  <!-- Right panel -->
  <path d="M44 16c2 12 2 24 0 32s-4 8-4 8h-4s2-4 2-8 0-20-2-32z"
        fill="#C62828"/>
  
  <!-- Bow tie -->
  <circle cx="32" cy="16" r="2" fill="#C62828"/>
  <path d="M30 14c-2 0-4 2-4 4s2 4 4 4" fill="#C62828"/>
  <path d="M34 14c2 0 4 2 4 4s-2 4-4 4" fill="#C62828"/>
</svg>
